<?xml version="1.0" standalone="no"?><svg xmlns="http://www.w3.org/2000/svg" viewBox="0 0 1440 320"><path fill="#0099ff" fill-opacity="1" d="M0,64L20,69.3C40,75,80,85,120,74.7C160,64,200,32,240,48C280,64,320,128,360,160C400,192,440,192,480,192C520,192,560,192,600,186.7C640,181,680,171,720,154.7C760,139,800,117,840,122.7C880,128,920,160,960,160C1000,160,1040,128,1080,128C1120,128,1160,160,1200,192C1240,224,1280,256,1320,256C1360,256,1400,224,1420,208L1440,192L1440,0L1420,0C1400,0,1360,0,1320,0C1280,0,1240,0,1200,0C1160,0,1120,0,1080,0C1040,0,1000,0,960,0C920,0,880,0,840,0C800,0,760,0,720,0C680,0,640,0,600,0C560,0,520,0,480,0C440,0,400,0,360,0C320,0,280,0,240,0C200,0,160,0,120,0C80,0,40,0,20,0L0,0Z"></path></svg>