<?xml version="1.0" standalone="no"?><svg xmlns="http://www.w3.org/2000/svg" viewBox="0 0 1440 320"><path fill="#0099ff" fill-opacity="1" d="M0,64L20,69.3C40,75,80,85,120,74.7C160,64,200,32,240,48C280,64,320,128,360,160C400,192,440,192,480,192C520,192,560,192,600,186.7C640,181,680,171,720,154.7C760,139,800,117,840,122.7C880,128,920,160,960,160C1000,160,1040,128,1080,128C1120,128,1160,160,1200,192C1240,224,1280,256,1320,256C1360,256,1400,224,1420,208L1440,192L1440,320L1420,320C1400,320,1360,320,1320,320C1280,320,1240,320,1200,320C1160,320,1120,320,1080,320C1040,320,1000,320,960,320C920,320,880,320,840,320C800,320,760,320,720,320C680,320,640,320,600,320C560,320,520,320,480,320C440,320,400,320,360,320C320,320,280,320,240,320C200,320,160,320,120,320C80,320,40,320,20,320L0,320Z"></path></svg>