<?xml version="1.0" standalone="no"?>
<svg viewBox="0 0 200 200" xmlns="http://www.w3.org/2000/svg">
  <path fill="#FF0066" d="M40.5,-72.5C51.6,-63.6,59.3,-51.2,65.5,-38.5C71.6,-25.8,76.2,-12.9,79.4,1.8C82.6,16.6,84.3,33.1,77.8,45.2C71.3,57.2,56.5,64.7,42.2,67C27.8,69.3,13.9,66.4,-0.6,67.5C-15.1,68.6,-30.3,73.6,-43.4,70.6C-56.6,67.6,-67.8,56.6,-75.5,43.5C-83.3,30.4,-87.7,15.2,-88.5,-0.4C-89.2,-16.1,-86.3,-32.1,-77.4,-43.2C-68.5,-54.3,-53.4,-60.4,-39.5,-67.8C-25.6,-75.1,-12.8,-83.6,0.9,-85.2C14.6,-86.8,29.3,-81.4,40.5,-72.5Z" transform="translate(100 100)" />
</svg>
